<?xml version="1.0" encoding="UTF-8" standalone="no"?>
<svg width="253px" height="251px" viewBox="0 0 253 251" version="1.1" xmlns="http://www.w3.org/2000/svg" xmlns:xlink="http://www.w3.org/1999/xlink">
    <!-- Generator: Sketch 3.7.1 (28215) - http://www.bohemiancoding.com/sketch -->
    <title>cup</title>
    <desc>Created with Sketch.</desc>
    <defs></defs>
    <g id="Page-1" stroke="none" stroke-width="1" fill="none" fill-rule="evenodd">
        <g id="cup" fill="#0DCAC5">
            <g id="Group">
                <path d="M250.199,129.708 C246.965,124.924 241.238,122.063 234.882,122.063 L203.884,122.063 C204.21,117.391 204.331,113.522 204.369,110.745 C204.396,108.106 202.198,105.966 199.553,105.966 L7.107,105.966 C4.465,105.966 2.263,108.101 2.3,110.745 C2.573,131.397 7.877,212.842 73.89,232.677 L12.045,232.677 C8.136,232.677 3.8,235.631 2.386,239.281 L0.456,244.247 C-0.965,247.893 1.042,250.851 4.962,250.851 L201.689,250.851 C205.6,250.851 207.617,247.892 206.198,244.247 L204.257,239.281 C202.838,235.632 198.517,232.677 194.596,232.677 L135.773,232.677 C158.193,225.653 173.315,210.933 183.489,193.875 C226.099,192.671 244.441,163.207 251.591,145.449 C253.784,140.004 253.279,134.263 250.199,129.708 L250.199,129.708 Z M238.289,140.102 C231.793,156.246 218.37,175.105 191.059,178.918 C197.238,164.249 200.575,149.09 202.358,136.405 L234.882,136.405 C236.758,136.405 237.888,137.087 238.318,137.735 C238.7,138.3 238.69,139.094 238.289,140.102 L238.289,140.102 Z" id="Shape"></path>
                <path d="M101.503,99.738 C102.514,100.9 103.932,101.493 105.342,101.493 C106.528,101.493 107.713,101.082 108.662,100.254 C110.781,98.42 111.015,95.213 109.173,93.095 C109.054,92.943 95.601,77.047 104.247,66.171 C115.775,51.661 108.753,39.814 103.426,35.581 C101.242,33.835 98.04,34.195 96.295,36.388 C94.571,38.568 94.914,41.737 97.07,43.484 C98.302,44.537 103.994,50.165 96.295,59.863 C82.417,77.325 100.731,98.831 101.503,99.738 L101.503,99.738 Z" id="Shape"></path>
                <path d="M128.654,9.094 C130.81,7.339 131.153,4.175 129.419,1.998 C127.674,-0.195 124.481,-0.555 122.288,1.188 C116.97,5.423 109.948,17.271 121.476,31.78 C130.122,42.657 116.669,58.558 116.538,58.704 C114.708,60.821 114.933,64.029 117.051,65.864 C118.01,66.695 119.196,67.103 120.372,67.103 C121.791,67.103 123.209,66.51 124.208,65.348 C124.992,64.441 143.298,42.935 129.428,25.461 C121.719,15.775 127.417,10.14 128.654,9.094 L128.654,9.094 Z" id="Shape"></path>
            </g>
        </g>
    </g>
</svg>